<?xml version="1.0" standalone="no"?>
<!DOCTYPE svg PUBLIC "-//W3C//DTD SVG 20010904//EN"
 "http://www.w3.org/TR/2001/REC-SVG-20010904/DTD/svg10.dtd">
<svg version="1.0" xmlns="http://www.w3.org/2000/svg"
 width="297.000000pt" height="170.000000pt" viewBox="0 0 297.000000 170.000000"
 preserveAspectRatio="xMidYMid meet">

<g transform="translate(0.000000,170.000000) scale(0.100000,-0.100000)"
fill="#000000" stroke="none">
<path d="M1685 1470 l-80 -80 26 -26 26 -26 27 28 26 29 80 -80 79 -79 23 20
c13 10 26 24 30 29 4 6 -29 46 -73 91 l-81 81 26 21 c14 11 26 24 26 29 0 12
-33 43 -46 43 -5 0 -45 -36 -89 -80z"/>
<path d="M1497 1280 l-62 -59 100 -101 c55 -55 105 -100 111 -100 6 0 21 11
34 25 l24 25 -39 40 c-33 34 -36 40 -21 46 10 4 42 -1 71 -11 l54 -19 20 25
c11 13 20 29 21 36 0 12 -97 53 -125 53 -10 0 -15 10 -15 28 0 41 -33 72 -76
72 -30 0 -46 -9 -97 -60z m109 -34 c3 -8 0 -24 -6 -36 l-12 -22 -21 20 c-17
17 -18 23 -7 36 16 20 39 21 46 2z"/>
<path d="M1327 1112 c-15 -15 -27 -33 -27 -38 0 -14 109 -257 121 -269 6 -6
20 2 40 21 l30 30 -18 32 c-18 31 -18 32 8 58 27 26 27 26 58 8 l31 -18 30 29
c16 16 30 32 30 37 0 8 -254 138 -269 138 -4 0 -19 -13 -34 -28z m104 -115
c-9 -9 -14 -8 -21 3 -16 24 -11 31 11 19 16 -8 18 -14 10 -22z"/>
<path d="M1135 920 l-80 -80 26 -26 26 -26 27 28 26 29 78 -78 c42 -42 81 -77
84 -77 4 0 19 12 33 27 l25 28 -81 81 -81 81 26 21 c14 11 26 24 26 29 0 12
-33 43 -46 43 -5 0 -45 -36 -89 -80z"/>
<path d="M1007 796 c-69 -56 -87 -127 -42 -171 28 -29 64 -32 125 -10 53 19
60 19 60 1 0 -8 -19 -30 -42 -49 -41 -35 -42 -35 -25 -61 10 -14 23 -26 29
-26 19 0 106 95 114 124 10 43 -17 91 -59 105 -29 10 -44 9 -91 -8 -31 -11
-58 -16 -61 -11 -3 4 11 22 30 39 38 33 42 46 21 74 -17 22 -25 21 -59 -7z"/>
<path d="M2031 403 c-1 -26 -4 -49 -7 -52 -3 -3 -227 -4 -497 -2 l-492 3 -42
39 -43 39 -165 0 c-91 0 -165 -2 -165 -6 0 -3 25 -28 55 -56 30 -28 55 -54 55
-58 0 -5 -26 -33 -57 -64 l-58 -56 173 0 174 0 41 36 c41 35 43 36 107 30 36
-3 257 -6 493 -6 l427 0 0 -50 c0 -34 4 -50 13 -49 22 1 300 124 303 134 3 9
-291 167 -307 165 -3 0 -7 -21 -8 -47z"/>
</g>
</svg>
